<?xml version="1.0" encoding="UTF-8" ?>
<!DOCTYPE svg PUBLIC "-//W3C//DTD SVG 1.1//EN" "http://www.w3.org/Graphics/SVG/1.1/DTD/svg11.dtd">
<svg width="640pt" height="640pt" viewBox="0 0 640 640" version="1.1" xmlns="http://www.w3.org/2000/svg">
<g id="#75c4beff">
<path fill="#75c4be" opacity="1.00" d=" M 326.33 53.46 C 332.73 52.13 339.80 52.94 345.24 56.78 C 351.10 60.95 355.42 66.87 359.18 72.91 C 413.13 162.45 466.15 252.54 519.63 342.37 C 533.77 366.22 548.04 389.99 561.98 413.97 C 565.57 420.47 569.65 426.80 572.11 433.85 C 574.71 442.80 575.26 452.42 573.40 461.58 C 571.16 471.91 563.67 480.51 554.58 485.59 C 547.15 489.94 538.61 492.34 529.99 492.34 C 471.66 492.39 413.33 492.32 355.00 492.38 C 347.28 492.31 339.07 491.06 332.84 486.14 C 328.67 482.79 324.78 478.42 323.87 472.98 C 322.65 465.12 324.45 457.05 328.13 450.06 C 332.44 441.85 337.43 434.01 341.95 425.92 C 350.12 411.30 359.31 397.29 367.87 382.90 C 373.02 374.40 381.07 366.99 391.06 365.01 C 405.38 363.19 421.45 374.82 420.76 390.02 C 420.53 403.34 411.28 413.77 406.46 425.58 C 405.37 428.57 403.57 432.32 405.76 435.24 C 409.97 437.89 415.19 437.95 420.00 438.17 C 444.00 438.20 467.99 438.13 491.99 438.21 C 496.40 438.12 501.06 438.21 505.15 436.27 C 506.87 435.57 507.96 433.81 507.89 431.96 C 507.85 428.01 505.68 424.52 503.79 421.19 C 495.41 407.20 487.36 393.02 479.03 379.00 C 435.55 304.25 391.71 229.71 347.81 155.20 C 344.09 149.60 341.53 143.14 336.78 138.28 C 334.65 135.85 330.80 136.63 329.07 139.11 C 324.76 144.59 321.32 150.70 317.65 156.62 C 258.22 256.83 198.68 356.97 139.09 457.08 C 134.67 465.40 129.90 473.61 124.01 480.99 C 118.33 487.59 110.05 492.53 101.18 492.56 C 92.76 491.73 84.50 487.48 79.39 480.65 C 75.14 474.46 74.64 466.37 76.43 459.25 C 78.16 451.11 82.97 444.19 87.22 437.20 C 128.26 367.34 169.88 297.83 211.19 228.13 C 234.01 189.69 256.88 151.28 279.84 112.92 C 287.23 99.22 295.72 86.17 303.81 72.89 C 309.02 64.44 316.29 55.89 326.33 53.46 Z" />
</g>
<g id="#2c9fd6ff">
<path fill="#2c9fd6" opacity="1.00" d=" M 329.35 261.14 C 337.95 260.38 347.26 263.39 353.07 269.98 C 357.77 275.75 360.69 283.43 358.96 290.91 C 357.79 299.89 351.32 306.64 347.61 314.57 C 342.19 323.76 336.45 332.76 331.05 341.96 C 324.62 354.04 316.79 365.31 310.38 377.39 C 305.41 384.56 301.54 392.40 296.78 399.71 C 290.29 410.33 284.30 421.24 277.99 431.97 C 267.62 447.21 259.73 463.97 249.08 479.02 C 244.35 485.33 237.50 490.71 229.49 491.80 C 223.07 492.98 216.60 490.64 210.88 487.89 C 205.68 484.07 200.75 478.79 200.12 472.05 C 199.38 464.91 199.56 456.96 203.97 450.94 C 209.04 444.01 211.63 435.67 216.66 428.72 C 221.89 421.34 225.45 412.96 230.56 405.50 C 236.11 397.24 240.85 388.50 245.75 379.85 C 257.24 361.25 268.04 342.23 279.39 323.55 C 283.37 315.67 288.11 308.22 292.72 300.71 C 299.71 290.30 305.20 278.88 313.07 269.07 C 316.98 264.08 323.33 262.12 329.35 261.14 Z" />
</g>
</svg>
