<svg width="722" height="722" xmlns="http://www.w3.org/2000/svg" version="1.1">
 <g>
  <g id="#70c6beff">
   <path id="svg_2" d="m372.33,100.27c8.44,-1.08 16.61,3.14 22.53,8.87c6.71,6.94 11.39,15.47 16.32,23.68c62.43,104.06 124.07,208.59 186.17,312.85c14.6,24.75 29.53,49.31 43.56,74.4c6.59,11.45 9.1,25.23 6.54,38.23c-1.67,11.63 -8.97,22.12 -18.86,28.31c-7.78,4.86 -16.58,8.22 -25.73,9.17c-4.61,0.42 -9.24,0.19 -13.86,0.22c-63.67,0 -127.35,-0.01 -191.02,0c-8.07,-0.1 -16.22,-2.41 -22.78,-7.2c-7.16,-4.99 -11.59,-14.05 -10.32,-22.79c0.89,-9.17 4.85,-17.68 9.63,-25.44c10.82,-18.77 21.65,-37.53 33.15,-55.9c5.16,-8.03 9.38,-16.95 16.59,-23.43c4.87,-4.16 10.6,-7.63 16.96,-8.82c9.04,-1.12 18.19,2.51 24.97,8.39c6.95,6.16 9.53,16.17 7.88,25.14c-2.58,14.52 -13.13,25.82 -17.34,39.74c-0.92,2.35 -0.44,5.39 2.07,6.53c4.99,2.51 10.75,2.65 16.22,2.79c27.67,-0.02 55.34,-0.02 83.02,0.01c5.04,-0.14 10.92,-0.42 14.59,-4.38c1.7,-5.94 -2.55,-11.22 -5.1,-16.2c-59.46,-101.8 -118.86,-203.63 -178.93,-305.08c-2.61,-4.29 -4.77,-8.97 -8.31,-12.62c-2.33,-2.69 -7,-2.37 -8.92,0.63c-5.67,7.2 -10.1,15.27 -14.86,23.07c-65.86,110.83 -131.72,221.65 -197.58,332.48c-6.29,10.31 -11.48,21.4 -19.35,30.66c-6.28,7.48 -15.75,12.4 -25.6,12.35c-5.38,0.01 -10.4,-2.27 -15.04,-4.77c-6.95,-3.74 -12.3,-10.62 -13.5,-18.5c-1.49,-9.66 1.55,-19.46 6.41,-27.75c56.45,-95.79 113.47,-191.24 170.19,-286.88c21.72,-36.61 43.75,-73.05 65.19,-109.84c5.5,-9.12 11.24,-18.1 16.77,-27.21c6.13,-10.19 16.01,-19.5 28.34,-20.71z" fill="#70c6be"/>
  </g>
  <g id="#1ba0d8ff">
   <path id="svg_3" d="m368.33,335.39c9.54,-1.82 19.84,0.73 27.41,6.83c5.57,5 9.37,12.21 9.55,19.78c0.61,9.39 -3.76,18.08 -8.42,25.92c-36.12,60.55 -72.06,121.21 -108.18,181.76c-5.34,8.95 -11.1,18.53 -21,23.02c-15,8.41 -36.64,-0.5 -41.29,-17.06c-1.72,-7.86 -1.04,-16.4 2.63,-23.63c7.02,-14.54 15.98,-28.02 23.94,-42.05c31.09,-52.53 62.14,-105.09 93.63,-157.38c4.97,-7.94 12.06,-15.57 21.73,-17.19z" fill="#1ba0d8"/>
  </g>
 </g>
</svg>